<?xml version="1.0" encoding="utf-8"?>
<!-- Generator: Adobe Illustrator 21.1.0, SVG Export Plug-In . SVG Version: 6.00 Build 0)  -->
<svg version="1.1" id="Слой_1" xmlns="http://www.w3.org/2000/svg" xmlns:xlink="http://www.w3.org/1999/xlink" x="0px" y="0px"
	 viewBox="0 0 458.179 171.431" enable-background="new 0 0 458.179 171.431" xml:space="preserve">
<g>
	<g>
		<path fill="#FFFFFF" d="M158.479,102.928c-7.014,26.47-31.167,46.04-59.812,46.04c-34.118,0-61.875-27.757-61.875-61.875
			s27.757-61.875,61.875-61.875c28.454,0,52.469,19.313,59.663,45.515h7.232c-7.364-30.104-34.555-52.515-66.895-52.515
			c-37.978,0-68.875,30.897-68.875,68.875c0,37.977,30.897,68.875,68.875,68.875c32.527,0,59.841-22.673,67.016-53.04H158.479z
			 M139.984,105.161c7.045-5.057,10.868-12.186,13.055-20.177c0.116-0.424-0.269-1.338-0.631-1.461
			c-5.193-1.764-10.361-3.641-15.662-5.06c-4.954-1.326-10.047-1.376-15.041,0.163c-0.275,0.085-0.519,0.262-0.777,0.397
			c0.02,0.081,0.04,0.161,0.06,0.242c2.064,0,4.132-0.086,6.19,0.016c6.125,0.302,11.788,2.18,17.188,4.832
			c0.349,0.171,0.581,0.933,0.531,1.387c-0.102,0.933-0.436,1.843-0.661,2.765c-0.021,0.087,0.056,0.197,0.152,0.496
			c1.07-0.059,2.195-0.12,3.655-0.2c-0.51,1.02-0.852,1.94-1.389,2.742c-3.147,4.698-7.716,7.923-12.601,10.77
			c-0.654,0.381-1.71,0.305-2.548,0.202c-4.581-0.563-9.147-0.606-13.695,0.207c-1.151,0.206-2.264,0.602-3.395,0.911
			c0.011,0.146,0.022,0.291,0.034,0.437c1.502,0.35,3.004,0.701,3.928,0.916c-3.334,0-7.219,0.114-11.091-0.052
			c-1.707-0.073-3.057,0.215-4.461,1.153c-3.978,2.657-8.427,3.862-13.309,3.438c-0.22-0.019-0.441-0.045-0.654-0.094
			c-0.095-0.022-0.173-0.108-0.343-0.222c1.796-0.55,3.575-0.978,5.259-1.63c7.417-2.87,12.965-7.881,17.572-13.99
			c0.631-0.837,1.615-1.556,2.599-2.002c2.441-1.106,4.98-2.017,7.473-3.021c0.432-0.174,0.833-0.421,1.185-0.932
			c-0.405-0.046-0.809-0.117-1.216-0.133c-3.146-0.121-6.295-0.193-9.438-0.367c-1.056-0.059-1.722,0.269-2.392,1.034
			c-5.048,5.765-11.223,9.894-18.922,11.861c-7.873,2.01-14.449-0.149-18.854-6.687c-1.863-2.766-3.139-5.892-4.673-8.858
			c-0.226-0.437-0.409-0.894-0.79-1.737c-2.929-3.999-2.336,9.905-1.686,15.281c-7.43-6.62-6.544-2.991-15.919-5.993
			c-13.037-12.828,20.965,43.264,19.585,35.774c10.187-8.602,13.589-4.742,21.54-7.159c-0.357,1.574,3.494-1.293,3.102,0.436
			c5.505-3.688,6.684-2.703,13.035-4.715c-0.261,1.124,1.756-0.193,1.52,0.825c0.596-0.2,1.756-1.008,2.111-1.182
			c8.797-4.31,15.159-2.727,24.895-1.452c2.778,0.364,3.087,0.129,3.087-2.59c0-0.369,0.08-0.778-0.057-1.099
			C136.407,107.987,137.806,106.725,139.984,105.161z M93.44,51.011c-0.326-4.187-3.526-5.8-7.299-3.682
			c-2.147,1.205-5.179,4.106-6.103,5.962c1.534,0.274,3.015,0.518,4.487,0.805c9.603,1.878,18.824,4.767,26.884,10.224
			c3.212,2.174,5.959,4.973,8.908,7.497c0.763,0.653,0.962,1.377,0.602,2.385c-0.471,1.321-0.682,2.726-1.004,4.094
			c0.152,0.07,0.304,0.14,0.456,0.21c1.73-2.024,3.51-4.012,5.134-6.11c0.237-0.307-0.099-1.273-0.466-1.708
			c-4.461-5.309-10.044-9.29-16.378-12.351c-4.31-2.083-8.856-3.529-13.6-4.389c-1.133-0.205-1.852-0.576-1.602-1.833
			C93.53,51.76,93.468,51.378,93.44,51.011z M115.177,76.669c-0.237-0.119-0.474-0.239-0.712-0.358
			c-2.963,0.16-5.925,0.32-8.888,0.48l-0.163,0.479c2.713,1.674,5.425,3.348,8.138,5.022c0.183-0.056,0.365-0.112,0.548-0.168
			C112.321,80.031,111.986,78.123,115.177,76.669z M76.464,48.171c-0.355-2.076-1.965-3.388-4.172-3.688
			c-7.455-1.015-8.442,2.295-11.591,9.167c-0.493,1.077-0.845,1.512-1.997,1.909c-3.881,1.339,1.785,1.033,2.965,2.64l4.099-9.982
			c1.137-0.657,2.42-1.084,4.036-1.791c-1.554,2.024-2.917,3.542-3.957,5.239c-0.793,1.294-1.228,2.801-1.721,4.244
			c-0.309,0.903-0.051,1.422,1.172,1.487c5.232,0.279,10.462,0.631,15.685,1.035c1.587,0.123,3.15,0.508,4.728,0.756
			c0.66,0.104,1.328,0.162,1.992,0.241c0.055-0.194,0.11-0.388,0.165-0.582c-2.994-1.103-5.953-2.305-8.993-3.278
			c-2.419-0.774-2.372-0.643-2.191-3.015C76.793,51.104,76.71,49.608,76.464,48.171z"/>
	</g>
</g>
<g>
	<path fill="#FFFFFF" d="M183.821,87.442c0-2.673,0.47-5.077,1.416-7.212c0.943-2.136,2.191-3.842,3.747-5.121
		c1.553-1.278,3.288-2.244,5.206-2.897s3.922-0.981,6.014-0.981c3.196,0,6.099,0.654,8.714,1.961v6.232
		c-2.061-1.598-4.603-2.397-7.624-2.397c-2.965,0-5.499,0.879-7.605,2.636c-2.106,1.759-3.158,4.351-3.158,7.779
		c0,1.626,0.305,3.071,0.915,4.335c0.61,1.265,1.43,2.274,2.463,3.03c1.031,0.755,2.177,1.329,3.442,1.721
		c1.262,0.391,2.577,0.587,3.943,0.587c3.369,0,5.983-0.842,7.844-2.527v6.405c-2.702,1.307-5.653,1.961-8.846,1.961
		c-2.092,0-4.097-0.32-6.014-0.959c-1.917-0.638-3.667-1.569-5.251-2.788c-1.584-1.22-2.846-2.846-3.79-4.881
		C184.291,92.293,183.821,89.998,183.821,87.442z"/>
	<path fill="#FFFFFF" d="M220.551,102.344h-6.537V71.842h6.537v12.114h4.924l7.712-12.114h7.279l-9.891,14.859l10.456,15.643H233.8
		l-8.324-12.462h-4.924V102.344z"/>
	<path fill="#FFFFFF" d="M244.126,71.842h11.504c8.773,0,13.161,3.414,13.161,10.24c0,6.827-4.388,10.24-13.161,10.24h-4.967v10.023
		h-6.537V71.842z M262.124,82.082c0-2.992-2.064-4.488-6.189-4.488h-5.272v8.976h5.272C260.06,86.57,262.124,85.075,262.124,82.082z
		"/>
	<path fill="#FFFFFF" d="M273.975,102.344h-6.754l12.463-30.503h7.059l12.419,30.503h-6.754l-2.222-5.708h-13.943L273.975,102.344z
		 M282.516,80.296l-4.227,10.937h9.849l-4.272-10.937c-0.291-0.813-0.508-1.612-0.652-2.397
		C283.039,78.799,282.807,79.598,282.516,80.296z"/>
	<path fill="#FFFFFF" d="M329.488,71.842h6.057v30.503h-6.534v-18.78l-8.062,12.244h-3.792l-8.062-12.287v18.824h-6.537V71.842
		h6.057l10.459,15.862L329.488,71.842z"/>
	<path fill="#FFFFFF" d="M371.453,80.296c0,1.511-0.4,2.825-1.199,3.943s-1.896,1.924-3.291,2.418
		c1.657,0.494,3.021,1.372,4.097,2.636c1.073,1.264,1.612,2.913,1.612,4.946c0,1.511-0.326,2.84-0.981,3.987
		c-0.652,1.148-1.546,2.056-2.681,2.723c-1.132,0.669-2.388,1.17-3.768,1.504s-2.853,0.501-4.423,0.501
		c-3.631,0-7.059-0.668-10.284-2.005v-6.057c2.846,1.598,6.102,2.369,9.761,2.31c1.83,0,3.312-0.319,4.444-0.959
		c1.132-0.638,1.7-1.612,1.7-2.92c0-2.294-1.714-3.442-5.142-3.442h-4.879l0.043-5.578l4.097,0.044c1.48,0,2.636-0.268,3.463-0.806
		c0.827-0.537,1.241-1.313,1.241-2.331c0-1.074-0.463-1.91-1.395-2.506c-0.929-0.595-2.279-0.892-4.052-0.892
		c-2.934,0-5.853,0.887-8.759,2.657v-6.057c2.849-1.539,6.073-2.31,9.674-2.31c3.196,0,5.783,0.713,7.757,2.136
		C370.465,75.662,371.453,77.681,371.453,80.296z"/>
	<path fill="#FFFFFF" d="M382.824,85.176c2.499-1.337,5.142-2.005,7.931-2.005c2.846,0,5.279,0.843,7.298,2.527
		c2.019,1.686,3.028,4.038,3.028,7.059c0,3.225-1.09,5.731-3.267,7.517c-2.18,1.786-4.868,2.68-8.062,2.68
		c-8.948,0-13.421-5.142-13.421-15.426c0-2.615,0.376-4.93,1.132-6.95c0.754-2.018,1.787-3.63,3.092-4.836
		c1.307-1.206,2.79-2.113,4.447-2.723c1.655-0.611,3.456-0.916,5.402-0.916c2.818,0,5.534,0.61,8.149,1.831v5.752
		c-2.121-1.395-4.546-2.092-7.277-2.092C386.311,77.594,383.491,80.121,382.824,85.176z M382.824,90.448
		c0.291,2.615,0.972,4.467,2.047,5.556c1.076,1.09,2.527,1.635,4.357,1.635c1.57,0,2.849-0.377,3.835-1.134
		c0.988-0.755,1.482-1.902,1.482-3.442c0-2.963-1.931-4.444-5.794-4.444C386.658,88.618,384.682,89.228,382.824,90.448z"/>
	<path fill="#FFFFFF" d="M407.682,98.662c-2.251-2.861-3.376-6.572-3.376-11.134c0-4.56,1.125-8.272,3.376-11.134
		c2.251-2.861,5.629-4.292,10.13-4.292c4.504,0,7.882,1.431,10.132,4.292c2.251,2.862,3.376,6.573,3.376,11.134
		c0,4.561-1.125,8.273-3.376,11.134c-2.251,2.862-5.629,4.292-10.132,4.292C413.311,102.954,409.933,101.524,407.682,98.662z
		 M417.812,97.202c4.648,0,6.974-3.225,6.974-9.674s-2.326-9.674-6.974-9.674c-4.648,0-6.972,3.225-6.972,9.674
		S413.165,97.202,417.812,97.202z"/>
</g>
</svg>
